<mxfile host="app.diagrams.net" modified="2021-03-11T00:10:24.110Z" agent="5.0 (Windows NT 10.0; Win64; x64) AppleWebKit/537.36 (KHTML, like Gecko) Chrome/89.0.4389.82 Safari/537.36" etag="X7RIiKK4ODwWuGrrKZS4" version="14.4.6" type="github">
  <diagram id="5tKgyY6Z1C2SJGeD9GF-" name="Page-1">
    <mxGraphModel dx="2557" dy="913" grid="1" gridSize="10" guides="1" tooltips="1" connect="1" arrows="1" fold="1" page="1" pageScale="1" pageWidth="827" pageHeight="1169" math="0" shadow="0">
      <root>
        <mxCell id="0" />
        <mxCell id="1" parent="0" />
        <mxCell id="3OWIfSOwbEe1Oxi5vrvV-7" style="edgeStyle=orthogonalEdgeStyle;rounded=0;orthogonalLoop=1;jettySize=auto;html=1;" edge="1" parent="1" source="3OWIfSOwbEe1Oxi5vrvV-1" target="3OWIfSOwbEe1Oxi5vrvV-6">
          <mxGeometry relative="1" as="geometry" />
        </mxCell>
        <mxCell id="3OWIfSOwbEe1Oxi5vrvV-1" value="khám bệnh" style="shape=ext;rounded=1;html=1;whiteSpace=wrap;" vertex="1" parent="1">
          <mxGeometry x="470" y="210" width="120" height="80" as="geometry" />
        </mxCell>
        <mxCell id="3OWIfSOwbEe1Oxi5vrvV-3" style="edgeStyle=orthogonalEdgeStyle;rounded=0;orthogonalLoop=1;jettySize=auto;html=1;" edge="1" parent="1" source="3OWIfSOwbEe1Oxi5vrvV-2" target="3OWIfSOwbEe1Oxi5vrvV-1">
          <mxGeometry relative="1" as="geometry" />
        </mxCell>
        <mxCell id="3OWIfSOwbEe1Oxi5vrvV-17" style="edgeStyle=orthogonalEdgeStyle;rounded=0;orthogonalLoop=1;jettySize=auto;html=1;entryX=0;entryY=0.5;entryDx=0;entryDy=0;" edge="1" parent="1" source="3OWIfSOwbEe1Oxi5vrvV-2" target="3OWIfSOwbEe1Oxi5vrvV-16">
          <mxGeometry relative="1" as="geometry">
            <Array as="points">
              <mxPoint x="340" y="70" />
            </Array>
          </mxGeometry>
        </mxCell>
        <mxCell id="3OWIfSOwbEe1Oxi5vrvV-2" value="thu viện phí" style="shape=ext;rounded=1;html=1;whiteSpace=wrap;" vertex="1" parent="1">
          <mxGeometry x="290" y="210" width="120" height="80" as="geometry" />
        </mxCell>
        <mxCell id="3OWIfSOwbEe1Oxi5vrvV-5" style="edgeStyle=orthogonalEdgeStyle;rounded=0;orthogonalLoop=1;jettySize=auto;html=1;" edge="1" parent="1" source="3OWIfSOwbEe1Oxi5vrvV-28" target="3OWIfSOwbEe1Oxi5vrvV-2">
          <mxGeometry relative="1" as="geometry" />
        </mxCell>
        <mxCell id="3OWIfSOwbEe1Oxi5vrvV-4" value="lưu thông tin hành chính" style="shape=ext;rounded=1;html=1;whiteSpace=wrap;" vertex="1" parent="1">
          <mxGeometry x="-230" y="210" width="120" height="80" as="geometry" />
        </mxCell>
        <mxCell id="3OWIfSOwbEe1Oxi5vrvV-10" style="edgeStyle=orthogonalEdgeStyle;rounded=0;orthogonalLoop=1;jettySize=auto;html=1;" edge="1" parent="1" source="3OWIfSOwbEe1Oxi5vrvV-32" target="3OWIfSOwbEe1Oxi5vrvV-9">
          <mxGeometry relative="1" as="geometry" />
        </mxCell>
        <mxCell id="3OWIfSOwbEe1Oxi5vrvV-13" style="edgeStyle=orthogonalEdgeStyle;rounded=0;orthogonalLoop=1;jettySize=auto;html=1;" edge="1" parent="1" source="3OWIfSOwbEe1Oxi5vrvV-6" target="3OWIfSOwbEe1Oxi5vrvV-12">
          <mxGeometry relative="1" as="geometry" />
        </mxCell>
        <mxCell id="3OWIfSOwbEe1Oxi5vrvV-14" value="CLS" style="edgeLabel;html=1;align=center;verticalAlign=middle;resizable=0;points=[];" vertex="1" connectable="0" parent="3OWIfSOwbEe1Oxi5vrvV-13">
          <mxGeometry x="-0.667" y="-2" relative="1" as="geometry">
            <mxPoint as="offset" />
          </mxGeometry>
        </mxCell>
        <mxCell id="3OWIfSOwbEe1Oxi5vrvV-6" value="" style="shape=mxgraph.bpmn.shape;html=1;verticalLabelPosition=bottom;labelBackgroundColor=#ffffff;verticalAlign=top;align=center;perimeter=rhombusPerimeter;background=gateway;outlineConnect=0;outline=none;symbol=exclusiveGw;" vertex="1" parent="1">
          <mxGeometry x="660" y="225" width="50" height="50" as="geometry" />
        </mxCell>
        <mxCell id="3OWIfSOwbEe1Oxi5vrvV-26" style="edgeStyle=orthogonalEdgeStyle;rounded=0;orthogonalLoop=1;jettySize=auto;html=1;entryX=0;entryY=0.5;entryDx=0;entryDy=0;" edge="1" parent="1" source="3OWIfSOwbEe1Oxi5vrvV-9" target="3OWIfSOwbEe1Oxi5vrvV-25">
          <mxGeometry relative="1" as="geometry" />
        </mxCell>
        <mxCell id="3OWIfSOwbEe1Oxi5vrvV-9" value="kê toa thuốc" style="shape=ext;rounded=1;html=1;whiteSpace=wrap;" vertex="1" parent="1">
          <mxGeometry x="1020" y="210" width="120" height="80" as="geometry" />
        </mxCell>
        <mxCell id="3OWIfSOwbEe1Oxi5vrvV-15" style="edgeStyle=orthogonalEdgeStyle;rounded=0;orthogonalLoop=1;jettySize=auto;html=1;entryX=0.5;entryY=1;entryDx=0;entryDy=0;" edge="1" parent="1" source="3OWIfSOwbEe1Oxi5vrvV-12" target="3OWIfSOwbEe1Oxi5vrvV-2">
          <mxGeometry relative="1" as="geometry" />
        </mxCell>
        <mxCell id="3OWIfSOwbEe1Oxi5vrvV-12" value="chỉ định CLS" style="shape=ext;rounded=1;html=1;whiteSpace=wrap;" vertex="1" parent="1">
          <mxGeometry x="625" y="380" width="120" height="80" as="geometry" />
        </mxCell>
        <mxCell id="3OWIfSOwbEe1Oxi5vrvV-18" style="edgeStyle=orthogonalEdgeStyle;rounded=0;orthogonalLoop=1;jettySize=auto;html=1;" edge="1" parent="1" source="3OWIfSOwbEe1Oxi5vrvV-16" target="3OWIfSOwbEe1Oxi5vrvV-1">
          <mxGeometry relative="1" as="geometry" />
        </mxCell>
        <mxCell id="3OWIfSOwbEe1Oxi5vrvV-16" value="thực hiện CLS" style="shape=ext;rounded=1;html=1;whiteSpace=wrap;" vertex="1" parent="1">
          <mxGeometry x="470" y="30" width="120" height="80" as="geometry" />
        </mxCell>
        <mxCell id="3OWIfSOwbEe1Oxi5vrvV-20" style="edgeStyle=orthogonalEdgeStyle;rounded=0;orthogonalLoop=1;jettySize=auto;html=1;entryX=0.5;entryY=0;entryDx=0;entryDy=0;" edge="1" parent="1" source="3OWIfSOwbEe1Oxi5vrvV-19" target="3OWIfSOwbEe1Oxi5vrvV-9">
          <mxGeometry relative="1" as="geometry" />
        </mxCell>
        <mxCell id="3OWIfSOwbEe1Oxi5vrvV-19" value="nhập thuốc" style="shape=ext;rounded=1;html=1;whiteSpace=wrap;" vertex="1" parent="1">
          <mxGeometry x="1020" y="40" width="120" height="80" as="geometry" />
        </mxCell>
        <mxCell id="3OWIfSOwbEe1Oxi5vrvV-22" style="edgeStyle=orthogonalEdgeStyle;rounded=0;orthogonalLoop=1;jettySize=auto;html=1;" edge="1" parent="1" source="3OWIfSOwbEe1Oxi5vrvV-21" target="3OWIfSOwbEe1Oxi5vrvV-12">
          <mxGeometry relative="1" as="geometry" />
        </mxCell>
        <mxCell id="3OWIfSOwbEe1Oxi5vrvV-21" value="nhập vật tư y tế" style="shape=ext;rounded=1;html=1;whiteSpace=wrap;" vertex="1" parent="1">
          <mxGeometry x="625" y="545" width="120" height="80" as="geometry" />
        </mxCell>
        <mxCell id="3OWIfSOwbEe1Oxi5vrvV-24" style="edgeStyle=orthogonalEdgeStyle;rounded=0;orthogonalLoop=1;jettySize=auto;html=1;" edge="1" parent="1" source="3OWIfSOwbEe1Oxi5vrvV-23" target="3OWIfSOwbEe1Oxi5vrvV-4">
          <mxGeometry relative="1" as="geometry" />
        </mxCell>
        <mxCell id="3OWIfSOwbEe1Oxi5vrvV-23" value="" style="shape=mxgraph.bpmn.shape;html=1;verticalLabelPosition=bottom;labelBackgroundColor=#ffffff;verticalAlign=top;align=center;perimeter=ellipsePerimeter;outlineConnect=0;outline=standard;symbol=general;" vertex="1" parent="1">
          <mxGeometry x="-310" y="227.5" width="45" height="45" as="geometry" />
        </mxCell>
        <mxCell id="3OWIfSOwbEe1Oxi5vrvV-25" value="" style="shape=mxgraph.bpmn.shape;html=1;verticalLabelPosition=bottom;labelBackgroundColor=#ffffff;verticalAlign=top;align=center;perimeter=ellipsePerimeter;outlineConnect=0;outline=end;symbol=general;" vertex="1" parent="1">
          <mxGeometry x="1250" y="225" width="50" height="50" as="geometry" />
        </mxCell>
        <mxCell id="3OWIfSOwbEe1Oxi5vrvV-27" value="quản lý nhân viên" style="shape=ext;rounded=1;html=1;whiteSpace=wrap;" vertex="1" parent="1">
          <mxGeometry x="310" y="540" width="120" height="80" as="geometry" />
        </mxCell>
        <mxCell id="3OWIfSOwbEe1Oxi5vrvV-28" value="đăng ký dịch vụ khám bệnh" style="shape=ext;rounded=1;html=1;whiteSpace=wrap;" vertex="1" parent="1">
          <mxGeometry x="110" y="210" width="120" height="80" as="geometry" />
        </mxCell>
        <mxCell id="3OWIfSOwbEe1Oxi5vrvV-29" style="edgeStyle=orthogonalEdgeStyle;rounded=0;orthogonalLoop=1;jettySize=auto;html=1;" edge="1" parent="1" source="3OWIfSOwbEe1Oxi5vrvV-35" target="3OWIfSOwbEe1Oxi5vrvV-28">
          <mxGeometry relative="1" as="geometry">
            <mxPoint x="69.99999999999977" y="250" as="sourcePoint" />
            <mxPoint x="290.0000000000002" y="250" as="targetPoint" />
          </mxGeometry>
        </mxCell>
        <mxCell id="3OWIfSOwbEe1Oxi5vrvV-38" style="edgeStyle=orthogonalEdgeStyle;rounded=0;orthogonalLoop=1;jettySize=auto;html=1;" edge="1" parent="1" source="3OWIfSOwbEe1Oxi5vrvV-32" target="3OWIfSOwbEe1Oxi5vrvV-36">
          <mxGeometry relative="1" as="geometry" />
        </mxCell>
        <mxCell id="3OWIfSOwbEe1Oxi5vrvV-32" value="kết luận bệnh" style="shape=ext;rounded=1;html=1;whiteSpace=wrap;" vertex="1" parent="1">
          <mxGeometry x="830" y="210" width="120" height="80" as="geometry" />
        </mxCell>
        <mxCell id="3OWIfSOwbEe1Oxi5vrvV-33" style="edgeStyle=orthogonalEdgeStyle;rounded=0;orthogonalLoop=1;jettySize=auto;html=1;" edge="1" parent="1" source="3OWIfSOwbEe1Oxi5vrvV-6" target="3OWIfSOwbEe1Oxi5vrvV-32">
          <mxGeometry relative="1" as="geometry">
            <mxPoint x="710" y="250" as="sourcePoint" />
            <mxPoint x="1020" y="250" as="targetPoint" />
          </mxGeometry>
        </mxCell>
        <mxCell id="3OWIfSOwbEe1Oxi5vrvV-34" value="kê toa thuốc" style="edgeLabel;html=1;align=center;verticalAlign=middle;resizable=0;points=[];" vertex="1" connectable="0" parent="3OWIfSOwbEe1Oxi5vrvV-33">
          <mxGeometry x="-0.2427" relative="1" as="geometry">
            <mxPoint as="offset" />
          </mxGeometry>
        </mxCell>
        <mxCell id="3OWIfSOwbEe1Oxi5vrvV-36" value="lịch sử khám bệnh" style="shape=ext;rounded=1;html=1;whiteSpace=wrap;" vertex="1" parent="1">
          <mxGeometry x="830" y="360" width="120" height="80" as="geometry" />
        </mxCell>
        <mxCell id="3OWIfSOwbEe1Oxi5vrvV-35" value="kiểm tra lịch hẹn khám" style="shape=ext;rounded=1;html=1;whiteSpace=wrap;" vertex="1" parent="1">
          <mxGeometry x="-60" y="210" width="120" height="80" as="geometry" />
        </mxCell>
        <mxCell id="3OWIfSOwbEe1Oxi5vrvV-39" style="edgeStyle=orthogonalEdgeStyle;rounded=0;orthogonalLoop=1;jettySize=auto;html=1;" edge="1" parent="1" source="3OWIfSOwbEe1Oxi5vrvV-4" target="3OWIfSOwbEe1Oxi5vrvV-35">
          <mxGeometry relative="1" as="geometry">
            <mxPoint x="-110" y="250" as="sourcePoint" />
            <mxPoint x="110" y="250" as="targetPoint" />
          </mxGeometry>
        </mxCell>
        <mxCell id="3OWIfSOwbEe1Oxi5vrvV-40" value="quản lý nhân viên" style="shape=ext;rounded=1;html=1;whiteSpace=wrap;" vertex="1" parent="1">
          <mxGeometry x="60" y="490" width="120" height="80" as="geometry" />
        </mxCell>
      </root>
    </mxGraphModel>
  </diagram>
</mxfile>
